<?xml version="1.0" encoding="UTF-8"?>
<!DOCTYPE svg PUBLIC "-//W3C//DTD SVG 1.1//EN" "http://www.w3.org/Graphics/SVG/1.1/DTD/svg11.dtd">
<svg version="1.1" xmlns="http://www.w3.org/2000/svg" xmlns:xlink="http://www.w3.org/1999/xlink" x="0px" y="0px" width="100.486" height="19.52" viewBox="0, 0, 100.486, 19.52">
  <g id="Layer 1">
    <g>
      <path d="M18.305,13.664 L16.453,13.664 Q16.465,13.535 16.482,12.023 Q16.5,10.512 16.5,9.176 Q16.5,8.648 16.494,7.447 Q16.488,6.246 16.477,5.648 Q16.441,4.242 15.92,3.703 Q15.398,3.164 14.309,3.164 Q13.664,3.164 12.779,3.48 Q11.895,3.797 10.781,4.465 Q10.781,4.523 10.787,4.699 Q10.793,4.875 10.793,5.156 Q10.793,6.105 10.781,7.084 Q10.77,8.062 10.77,8.953 Q10.77,10.898 10.799,12.223 Q10.828,13.547 10.828,13.664 L8.977,13.664 Q8.977,13.535 9,12.246 Q9.023,10.957 9.023,9.199 Q9.023,8.613 9.018,7.424 Q9.012,6.234 9,5.672 Q8.988,5.156 8.906,4.688 Q8.824,4.219 8.602,3.891 Q8.355,3.527 7.969,3.346 Q7.582,3.164 6.867,3.164 Q6.211,3.164 5.332,3.545 Q4.453,3.926 3.316,4.641 Q3.316,4.84 3.305,6.135 Q3.293,7.43 3.293,8.25 Q3.293,9.645 3.322,11.596 Q3.352,13.547 3.352,13.664 L1.5,13.664 Q1.5,13.57 1.523,12.299 Q1.547,11.027 1.547,8.086 Q1.547,7.125 1.541,5.496 Q1.535,3.867 1.5,1.805 L3.328,1.805 L3.316,3.152 L3.328,3.164 Q4.113,2.602 5.303,2.051 Q6.492,1.5 7.406,1.5 Q8.555,1.5 9.322,1.98 Q10.09,2.461 10.418,3.199 L10.441,3.199 Q11.789,2.367 12.92,1.934 Q14.051,1.5 14.848,1.5 Q16.465,1.5 17.373,2.443 Q18.281,3.387 18.281,4.992 Q18.281,6.234 18.264,7.084 Q18.246,7.934 18.246,8.883 Q18.246,10.852 18.275,12.211 Q18.305,13.57 18.305,13.664 z M32.555,2.285 Q30.27,7.324 27.744,12.99 Q25.219,18.656 25.055,19.02 L23.438,18.422 L25.863,13.395 Q25.77,13.16 24.393,9.973 Q23.016,6.785 21.035,2.355 L22.793,1.594 Q24.082,4.852 25.418,8.033 Q26.754,11.215 26.824,11.379 L26.848,11.379 Q26.918,11.262 28.184,8.262 Q29.449,5.262 30.949,1.641 z" fill="#E9ADC8"/>
      <path d="M18.305,13.664 L16.453,13.664 Q16.465,13.535 16.482,12.023 Q16.5,10.512 16.5,9.176 Q16.5,8.648 16.494,7.447 Q16.488,6.246 16.477,5.648 Q16.441,4.242 15.92,3.703 Q15.398,3.164 14.309,3.164 Q13.664,3.164 12.779,3.48 Q11.895,3.797 10.781,4.465 Q10.781,4.523 10.787,4.699 Q10.793,4.875 10.793,5.156 Q10.793,6.105 10.781,7.084 Q10.77,8.062 10.77,8.953 Q10.77,10.898 10.799,12.223 Q10.828,13.547 10.828,13.664 L8.977,13.664 Q8.977,13.535 9,12.246 Q9.023,10.957 9.023,9.199 Q9.023,8.613 9.018,7.424 Q9.012,6.234 9,5.672 Q8.988,5.156 8.906,4.688 Q8.824,4.219 8.602,3.891 Q8.355,3.527 7.969,3.346 Q7.582,3.164 6.867,3.164 Q6.211,3.164 5.332,3.545 Q4.453,3.926 3.316,4.641 Q3.316,4.84 3.305,6.135 Q3.293,7.43 3.293,8.25 Q3.293,9.645 3.322,11.596 Q3.352,13.547 3.352,13.664 L1.5,13.664 Q1.5,13.57 1.523,12.299 Q1.547,11.027 1.547,8.086 Q1.547,7.125 1.541,5.496 Q1.535,3.867 1.5,1.805 L3.328,1.805 L3.316,3.152 L3.328,3.164 Q4.113,2.602 5.303,2.051 Q6.492,1.5 7.406,1.5 Q8.555,1.5 9.322,1.98 Q10.09,2.461 10.418,3.199 L10.441,3.199 Q11.789,2.367 12.92,1.934 Q14.051,1.5 14.848,1.5 Q16.465,1.5 17.373,2.443 Q18.281,3.387 18.281,4.992 Q18.281,6.234 18.264,7.084 Q18.246,7.934 18.246,8.883 Q18.246,10.852 18.275,12.211 Q18.305,13.57 18.305,13.664 z M32.555,2.285 Q30.27,7.324 27.744,12.99 Q25.219,18.656 25.055,19.02 L23.438,18.422 L25.863,13.395 Q25.77,13.16 24.393,9.973 Q23.016,6.785 21.035,2.355 L22.793,1.594 Q24.082,4.852 25.418,8.033 Q26.754,11.215 26.824,11.379 L26.848,11.379 Q26.918,11.262 28.184,8.262 Q29.449,5.262 30.949,1.641 z" fill-opacity="0" stroke="#000000" stroke-width="0.25" stroke-opacity="0.412"/>
    </g>
    <g>
      <path d="M48.036,12.786 Q48.036,13.958 47.433,14.896 Q46.829,15.833 45.681,16.431 Q44.661,16.958 43.443,17.198 Q42.224,17.438 40.653,17.438 Q39.493,17.438 38.269,17.397 Q37.044,17.356 36.903,17.345 Q36.939,15.095 36.95,13.097 Q36.962,11.099 36.962,9.282 Q36.962,5.837 36.933,3.827 Q36.903,1.817 36.903,1.735 Q37.068,1.724 38.198,1.677 Q39.329,1.63 40.396,1.63 Q41.603,1.63 42.622,1.788 Q43.642,1.946 44.345,2.228 Q45.411,2.649 46.021,3.44 Q46.63,4.231 46.63,5.38 Q46.63,6.587 45.862,7.519 Q45.095,8.45 44.11,8.79 L44.11,8.907 Q44.919,8.978 45.681,9.288 Q46.443,9.599 47.017,10.173 Q47.521,10.677 47.778,11.286 Q48.036,11.896 48.036,12.786 z M46.032,12.845 Q46.032,12.247 45.821,11.772 Q45.61,11.298 45.189,10.864 Q44.79,10.466 44.093,10.22 Q43.396,9.974 42.575,9.974 Q41.919,9.974 41.515,9.985 Q41.11,9.997 40.982,9.997 L40.794,8.591 Q41.661,8.567 42.323,8.386 Q42.985,8.204 43.501,7.841 Q43.993,7.489 44.31,6.944 Q44.626,6.399 44.626,5.72 Q44.626,5.005 44.275,4.483 Q43.923,3.962 43.314,3.657 Q42.798,3.411 42.048,3.288 Q41.298,3.165 40.443,3.165 Q39.892,3.165 39.429,3.183 Q38.966,3.2 38.837,3.2 Q38.802,4.911 38.796,6.833 Q38.79,8.755 38.79,9.622 Q38.79,11.638 38.808,13.671 Q38.825,15.704 38.825,15.845 Q39.06,15.856 39.452,15.874 Q39.845,15.892 40.208,15.892 Q41.556,15.892 42.71,15.751 Q43.864,15.61 44.661,15.165 Q45.318,14.802 45.675,14.216 Q46.032,13.63 46.032,12.845 z" fill="#3B4A5D"/>
      <path d="M48.036,12.786 Q48.036,13.958 47.433,14.896 Q46.829,15.833 45.681,16.431 Q44.661,16.958 43.443,17.198 Q42.224,17.438 40.653,17.438 Q39.493,17.438 38.269,17.397 Q37.044,17.356 36.903,17.345 Q36.939,15.095 36.95,13.097 Q36.962,11.099 36.962,9.282 Q36.962,5.837 36.933,3.827 Q36.903,1.817 36.903,1.735 Q37.068,1.724 38.198,1.677 Q39.329,1.63 40.396,1.63 Q41.603,1.63 42.622,1.788 Q43.642,1.946 44.345,2.228 Q45.411,2.649 46.021,3.44 Q46.63,4.231 46.63,5.38 Q46.63,6.587 45.862,7.519 Q45.095,8.45 44.11,8.79 L44.11,8.907 Q44.919,8.978 45.681,9.288 Q46.443,9.599 47.017,10.173 Q47.521,10.677 47.778,11.286 Q48.036,11.896 48.036,12.786 z M46.032,12.845 Q46.032,12.247 45.821,11.772 Q45.61,11.298 45.189,10.864 Q44.79,10.466 44.093,10.22 Q43.396,9.974 42.575,9.974 Q41.919,9.974 41.515,9.985 Q41.11,9.997 40.982,9.997 L40.794,8.591 Q41.661,8.567 42.323,8.386 Q42.985,8.204 43.501,7.841 Q43.993,7.489 44.31,6.944 Q44.626,6.399 44.626,5.72 Q44.626,5.005 44.275,4.483 Q43.923,3.962 43.314,3.657 Q42.798,3.411 42.048,3.288 Q41.298,3.165 40.443,3.165 Q39.892,3.165 39.429,3.183 Q38.966,3.2 38.837,3.2 Q38.802,4.911 38.796,6.833 Q38.79,8.755 38.79,9.622 Q38.79,11.638 38.808,13.671 Q38.825,15.704 38.825,15.845 Q39.06,15.856 39.452,15.874 Q39.845,15.892 40.208,15.892 Q41.556,15.892 42.71,15.751 Q43.864,15.61 44.661,15.165 Q45.318,14.802 45.675,14.216 Q46.032,13.63 46.032,12.845 z" fill-opacity="0" stroke="#000000" stroke-width="0.25" stroke-opacity="0.412"/>
    </g>
    <g>
      <path d="M61.298,10.724 Q61.298,13.63 61.286,15.458 Q61.275,17.286 61.275,17.427 Q61.157,17.438 60.185,17.515 Q59.212,17.591 57.677,17.591 Q56.716,17.591 55.743,17.415 Q54.771,17.239 54.068,16.911 Q53.13,16.478 52.55,15.728 Q51.97,14.978 51.97,13.923 Q51.97,12.81 52.655,11.995 Q53.341,11.181 54.56,10.677 Q55.321,10.36 56.593,10.108 Q57.864,9.856 59.493,9.728 Q59.423,8.813 59.036,8.228 Q58.65,7.642 57.9,7.337 Q57.384,7.126 56.751,7.038 Q56.118,6.95 55.275,6.95 Q54.747,6.95 54.378,6.974 Q54.009,6.997 53.376,7.032 L53.564,5.474 Q53.739,5.462 54.261,5.433 Q54.782,5.403 55.685,5.403 Q57.068,5.403 58.152,5.69 Q59.236,5.978 59.95,6.622 Q60.618,7.231 60.958,8.128 Q61.298,9.024 61.298,10.724 z M59.505,13.548 Q59.505,13.149 59.505,12.54 Q59.505,11.931 59.493,11.134 Q58.978,11.157 57.689,11.339 Q56.4,11.521 55.521,11.86 Q54.864,12.106 54.355,12.599 Q53.845,13.091 53.845,13.817 Q53.845,14.614 54.279,15.101 Q54.712,15.587 55.462,15.845 Q56.036,16.044 56.734,16.132 Q57.431,16.22 58.204,16.22 Q58.439,16.22 58.779,16.208 Q59.118,16.196 59.493,16.185 Q59.493,16.103 59.499,15.411 Q59.505,14.72 59.505,13.548 z" fill="#93CDA7"/>
      <path d="M61.298,10.724 Q61.298,13.63 61.286,15.458 Q61.275,17.286 61.275,17.427 Q61.157,17.438 60.185,17.515 Q59.212,17.591 57.677,17.591 Q56.716,17.591 55.743,17.415 Q54.771,17.239 54.068,16.911 Q53.13,16.478 52.55,15.728 Q51.97,14.978 51.97,13.923 Q51.97,12.81 52.655,11.995 Q53.341,11.181 54.56,10.677 Q55.321,10.36 56.593,10.108 Q57.864,9.856 59.493,9.728 Q59.423,8.813 59.036,8.228 Q58.65,7.642 57.9,7.337 Q57.384,7.126 56.751,7.038 Q56.118,6.95 55.275,6.95 Q54.747,6.95 54.378,6.974 Q54.009,6.997 53.376,7.032 L53.564,5.474 Q53.739,5.462 54.261,5.433 Q54.782,5.403 55.685,5.403 Q57.068,5.403 58.152,5.69 Q59.236,5.978 59.95,6.622 Q60.618,7.231 60.958,8.128 Q61.298,9.024 61.298,10.724 z M59.505,13.548 Q59.505,13.149 59.505,12.54 Q59.505,11.931 59.493,11.134 Q58.978,11.157 57.689,11.339 Q56.4,11.521 55.521,11.86 Q54.864,12.106 54.355,12.599 Q53.845,13.091 53.845,13.817 Q53.845,14.614 54.279,15.101 Q54.712,15.587 55.462,15.845 Q56.036,16.044 56.734,16.132 Q57.431,16.22 58.204,16.22 Q58.439,16.22 58.779,16.208 Q59.118,16.196 59.493,16.185 Q59.493,16.103 59.499,15.411 Q59.505,14.72 59.505,13.548 z" fill-opacity="0" stroke="#000000" stroke-width="0.25" stroke-opacity="0.412"/>
    </g>
    <g>
      <path d="M75.744,17.333 Q75.685,17.333 73.769,17.327 Q71.853,17.321 70.939,17.321 Q69.767,17.321 68.109,17.327 Q66.451,17.333 66.369,17.333 L65.982,16.231 Q67.142,14.743 69.082,12.241 Q71.021,9.739 73.025,7.126 L73.013,7.103 Q72.509,7.103 71.988,7.097 Q71.466,7.091 70.986,7.091 Q69.861,7.091 68.121,7.108 Q66.38,7.126 66.287,7.126 L66.287,5.661 Q66.392,5.661 68.197,5.667 Q70.001,5.673 70.412,5.673 Q71.232,5.673 72.96,5.667 Q74.689,5.661 74.841,5.661 L75.439,6.763 Q73.435,9.259 71.126,12.288 Q68.818,15.317 68.419,15.821 L68.431,15.845 Q68.876,15.845 69.597,15.851 Q70.318,15.856 71.15,15.856 Q73.517,15.856 74.595,15.839 Q75.673,15.821 75.744,15.821 z M87.193,17.333 Q87.134,17.333 85.218,17.327 Q83.302,17.321 82.388,17.321 Q81.216,17.321 79.558,17.327 Q77.9,17.333 77.818,17.333 L77.431,16.231 Q78.591,14.743 80.531,12.241 Q82.47,9.739 84.474,7.126 L84.462,7.103 Q83.958,7.103 83.437,7.097 Q82.915,7.091 82.435,7.091 Q81.31,7.091 79.57,7.108 Q77.83,7.126 77.736,7.126 L77.736,5.661 Q77.841,5.661 79.646,5.667 Q81.451,5.673 81.861,5.673 Q82.681,5.673 84.41,5.667 Q86.138,5.661 86.29,5.661 L86.888,6.763 Q84.884,9.259 82.576,12.288 Q80.267,15.317 79.869,15.821 L79.88,15.845 Q80.326,15.845 81.046,15.851 Q81.767,15.856 82.599,15.856 Q84.966,15.856 86.044,15.839 Q87.123,15.821 87.193,15.821 z" fill="#7FCFEB"/>
      <path d="M75.744,17.333 Q75.685,17.333 73.769,17.327 Q71.853,17.321 70.939,17.321 Q69.767,17.321 68.109,17.327 Q66.451,17.333 66.369,17.333 L65.982,16.231 Q67.142,14.743 69.082,12.241 Q71.021,9.739 73.025,7.126 L73.013,7.103 Q72.509,7.103 71.988,7.097 Q71.466,7.091 70.986,7.091 Q69.861,7.091 68.121,7.108 Q66.38,7.126 66.287,7.126 L66.287,5.661 Q66.392,5.661 68.197,5.667 Q70.001,5.673 70.412,5.673 Q71.232,5.673 72.96,5.667 Q74.689,5.661 74.841,5.661 L75.439,6.763 Q73.435,9.259 71.126,12.288 Q68.818,15.317 68.419,15.821 L68.431,15.845 Q68.876,15.845 69.597,15.851 Q70.318,15.856 71.15,15.856 Q73.517,15.856 74.595,15.839 Q75.673,15.821 75.744,15.821 z M87.193,17.333 Q87.134,17.333 85.218,17.327 Q83.302,17.321 82.388,17.321 Q81.216,17.321 79.558,17.327 Q77.9,17.333 77.818,17.333 L77.431,16.231 Q78.591,14.743 80.531,12.241 Q82.47,9.739 84.474,7.126 L84.462,7.103 Q83.958,7.103 83.437,7.097 Q82.915,7.091 82.435,7.091 Q81.31,7.091 79.57,7.108 Q77.83,7.126 77.736,7.126 L77.736,5.661 Q77.841,5.661 79.646,5.667 Q81.451,5.673 81.861,5.673 Q82.681,5.673 84.41,5.667 Q86.138,5.661 86.29,5.661 L86.888,6.763 Q84.884,9.259 82.576,12.288 Q80.267,15.317 79.869,15.821 L79.88,15.845 Q80.326,15.845 81.046,15.851 Q81.767,15.856 82.599,15.856 Q84.966,15.856 86.044,15.839 Q87.123,15.821 87.193,15.821 z" fill-opacity="0" stroke="#000000" stroke-width="0.25" stroke-opacity="0.412"/>
    </g>
    <g>
      <path d="M99.986,10.724 Q99.986,13.63 99.974,15.458 Q99.963,17.286 99.963,17.427 Q99.845,17.438 98.873,17.515 Q97.9,17.591 96.365,17.591 Q95.404,17.591 94.431,17.415 Q93.459,17.239 92.756,16.911 Q91.818,16.478 91.238,15.728 Q90.658,14.978 90.658,13.923 Q90.658,12.81 91.343,11.995 Q92.029,11.181 93.248,10.677 Q94.009,10.36 95.281,10.108 Q96.552,9.856 98.181,9.728 Q98.111,8.813 97.724,8.228 Q97.338,7.642 96.588,7.337 Q96.072,7.126 95.439,7.038 Q94.806,6.95 93.963,6.95 Q93.435,6.95 93.066,6.974 Q92.697,6.997 92.064,7.032 L92.252,5.474 Q92.427,5.462 92.949,5.433 Q93.47,5.403 94.373,5.403 Q95.756,5.403 96.84,5.69 Q97.924,5.978 98.638,6.622 Q99.306,7.231 99.646,8.128 Q99.986,9.024 99.986,10.724 z M98.193,13.548 Q98.193,13.149 98.193,12.54 Q98.193,11.931 98.181,11.134 Q97.666,11.157 96.377,11.339 Q95.088,11.521 94.209,11.86 Q93.552,12.106 93.043,12.599 Q92.533,13.091 92.533,13.817 Q92.533,14.614 92.967,15.101 Q93.4,15.587 94.15,15.845 Q94.724,16.044 95.422,16.132 Q96.119,16.22 96.892,16.22 Q97.127,16.22 97.467,16.208 Q97.806,16.196 98.181,16.185 Q98.181,16.103 98.187,15.411 Q98.193,14.72 98.193,13.548 z" fill="#E6EA2D"/>
      <path d="M99.986,10.724 Q99.986,13.63 99.974,15.458 Q99.963,17.286 99.963,17.427 Q99.845,17.438 98.873,17.515 Q97.9,17.591 96.365,17.591 Q95.404,17.591 94.431,17.415 Q93.459,17.239 92.756,16.911 Q91.818,16.478 91.238,15.728 Q90.658,14.978 90.658,13.923 Q90.658,12.81 91.343,11.995 Q92.029,11.181 93.248,10.677 Q94.009,10.36 95.281,10.108 Q96.552,9.856 98.181,9.728 Q98.111,8.813 97.724,8.228 Q97.338,7.642 96.588,7.337 Q96.072,7.126 95.439,7.038 Q94.806,6.95 93.963,6.95 Q93.435,6.95 93.066,6.974 Q92.697,6.997 92.064,7.032 L92.252,5.474 Q92.427,5.462 92.949,5.433 Q93.47,5.403 94.373,5.403 Q95.756,5.403 96.84,5.69 Q97.924,5.978 98.638,6.622 Q99.306,7.231 99.646,8.128 Q99.986,9.024 99.986,10.724 z M98.193,13.548 Q98.193,13.149 98.193,12.54 Q98.193,11.931 98.181,11.134 Q97.666,11.157 96.377,11.339 Q95.088,11.521 94.209,11.86 Q93.552,12.106 93.043,12.599 Q92.533,13.091 92.533,13.817 Q92.533,14.614 92.967,15.101 Q93.4,15.587 94.15,15.845 Q94.724,16.044 95.422,16.132 Q96.119,16.22 96.892,16.22 Q97.127,16.22 97.467,16.208 Q97.806,16.196 98.181,16.185 Q98.181,16.103 98.187,15.411 Q98.193,14.72 98.193,13.548 z" fill-opacity="0" stroke="#000000" stroke-width="0.25" stroke-opacity="0.412"/>
    </g>
  </g>
  <defs/>
</svg>
